<svg width="55" height="51" viewBox="0 0 55 51" fill="none" xmlns="http://www.w3.org/2000/svg">
<path d="M39.3082 32.0755H36.8239L35.9434 31.2882C39.0252 27.964 40.8805 23.6484 40.8805 18.9537C40.8805 8.48542 31.7296 0 20.4403 0C9.15094 0 0 8.48542 0 18.9537C0 29.422 9.15094 37.9074 20.4403 37.9074C25.5031 37.9074 30.1572 36.187 33.7421 33.3293L34.5912 34.1458V36.4494L50.3145 51L55 46.6552L39.3082 32.0755ZM20.4403 32.0755C12.6101 32.0755 6.28931 26.2144 6.28931 18.9537C6.28931 11.693 12.6101 5.8319 20.4403 5.8319C28.2704 5.8319 34.5912 11.693 34.5912 18.9537C34.5912 26.2144 28.2704 32.0755 20.4403 32.0755Z" fill="black"/>
</svg>
